<svg width="300" height="274" viewBox="0 0 300 274" fill="none" xmlns="http://www.w3.org/2000/svg">
<g clip-path="url(#clip0_8_238)">
<g opacity="0.25">
<path d="M154.46 257C195.875 257 229.449 252.737 229.449 247.479C229.449 242.221 195.875 237.958 154.46 237.958C113.044 237.958 79.4703 242.221 79.4703 247.479C79.4703 252.737 113.044 257 154.46 257Z" fill="#0F0F14"/>
</g>
<path d="M74.9103 207.579C81.5852 195.156 77.0409 182.946 76.6242 181.885C76.5535 181.861 76.4906 181.83 76.4277 181.799C76.4277 181.799 81.8997 194.582 74.9103 207.579Z" fill="#3E4049"/>
<path d="M75.9875 205.338C75.9796 205.361 75.9717 205.385 75.9639 205.401C75.9717 205.377 75.9796 205.354 75.9875 205.338Z" fill="#3E4049"/>
<path d="M75.4921 206.431C75.6572 206.085 75.8145 205.739 75.956 205.401C75.9638 205.377 75.9717 205.354 75.9796 205.338C81.1135 193.214 76.4198 181.806 76.4198 181.806C76.4827 181.838 76.5535 181.861 76.6164 181.893C76.6007 181.846 76.5849 181.806 76.5849 181.806C76.5849 181.806 72.9526 176.877 68.141 176.24C63.3294 175.603 62.378 177.561 62.4802 179.33C62.5825 181.099 66.5371 180.651 66.7887 183.056C67.0403 185.462 63.2665 185.462 62.4724 183.796C61.6783 182.129 63.0306 179.825 61.9771 178.693C60.9235 177.561 57.3148 178.599 56.3635 182.27C56.3635 182.27 52.2516 182.616 53.4545 188.112C53.4545 188.112 52.1494 189.975 54.4609 193.262C54.4609 193.262 53.5095 195.958 58.7221 200.424C63.9347 204.89 74.9103 207.586 74.9103 207.586H74.9182C75.0833 207.264 75.2484 206.95 75.4056 206.627C75.4371 206.556 75.4607 206.494 75.4921 206.431Z" fill="#EDBC9A"/>
<path d="M74.7924 207.822C74.8395 207.744 74.871 207.657 74.9182 207.579C74.8788 207.665 74.8395 207.744 74.7924 207.822Z" fill="#3E4049"/>
<path d="M226.477 207.579C219.487 194.582 224.794 181.799 224.794 181.799C222.09 183.049 214.644 182.805 207.23 170.54C199.816 158.275 193.896 156.986 193.896 156.986C183.369 160.901 150.694 162.591 150.694 162.591C150.694 162.591 118.018 160.901 107.491 156.986C107.491 156.986 101.571 158.275 94.1568 170.54C86.9079 182.522 79.4861 183.033 76.6243 181.885C77.0174 182.876 80.8934 193.788 75.9874 205.338C75.9796 205.361 75.9717 205.385 75.9638 205.401C75.8144 205.747 75.6572 206.085 75.5 206.431C75.4685 206.494 75.4449 206.556 75.4135 206.619C75.2562 206.942 75.0911 207.256 74.926 207.579C75.0754 207.61 87.6155 210.535 98.5754 204.685C98.5754 204.685 98.5754 185.557 103.985 170.446L98.5754 204.685C98.5754 204.685 97.7734 237.164 148.296 237.164H150.701H153.107C203.629 237.164 202.827 204.685 202.827 204.685C213.85 210.574 226.477 207.579 226.477 207.579Z" fill="#3E4049"/>
<path d="M247.933 188.104C249.136 182.608 245.024 182.262 245.024 182.262C244.072 178.583 240.464 177.553 239.41 178.685C238.357 179.817 239.709 182.121 238.915 183.788C238.121 185.454 234.347 185.454 234.598 183.049C234.85 180.643 238.813 181.083 238.907 179.322C239.009 177.553 238.058 175.595 233.246 176.232C228.435 176.869 224.802 181.799 224.802 181.799C224.802 181.799 219.495 194.575 226.485 207.579C226.485 207.579 237.46 204.882 242.673 200.416C247.886 195.95 246.934 193.254 246.934 193.254C249.238 189.967 247.933 188.104 247.933 188.104Z" fill="#EDBC9A"/>
<path d="M103.985 170.446C98.5754 185.557 98.5754 204.685 98.5754 204.685L103.985 170.446Z" fill="#3E4049"/>
<g opacity="0.4">
<path d="M238.168 177.828C238.168 177.828 234.418 177.278 231.509 179.039C228.6 180.808 225.211 184.519 225.015 184.558C224.818 184.597 224.378 184.818 224.378 184.818C224.378 184.818 219.212 185.258 214.652 182.215C210.092 179.173 207.34 175.399 204.054 169.659C200.768 163.92 195.618 158.228 195.767 158.228C195.917 158.228 201.287 160.83 207.576 170.54C213.866 180.25 217.813 180.887 219.888 181.893C221.964 182.899 225.29 181.61 225.29 181.61C225.29 181.61 228.497 177.498 232.468 176.499C236.438 175.509 238.569 177.018 238.168 177.828Z" fill="white"/>
</g>
<g opacity="0.4">
<path d="M63.5574 177.828C63.5574 177.828 67.3076 177.278 70.2166 179.039C73.1256 180.808 76.5142 184.519 76.7108 184.558C76.9073 184.597 77.3476 184.818 77.3476 184.818C77.3476 184.818 82.513 185.258 87.0731 182.215C91.6331 179.173 94.3849 175.399 97.6712 169.659C100.958 163.92 106.107 158.228 105.958 158.228C105.809 158.228 100.439 160.83 94.149 170.54C87.8593 180.25 83.9203 180.894 81.8447 181.901C79.7691 182.907 76.4434 181.618 76.4434 181.618C76.4434 181.618 73.2357 177.506 69.2653 176.507C65.287 175.509 63.1564 177.018 63.5574 177.828Z" fill="white"/>
</g>
<path d="M148.272 173.551C148.272 173.551 144.435 169.801 142.281 167.403C140.127 165.005 138.499 163.094 138.499 163.094L138.696 162.112C138.696 162.112 147.281 162.521 150.363 162.576C153.445 162.631 161.142 162.112 161.142 162.112L161.15 162.796C161.15 162.796 158.957 166.082 156.001 169.384C153.044 172.686 150.214 174.605 150.214 174.605L149.058 174.314L148.272 173.551Z" fill="#EDBC9A"/>
<path d="M202.482 197.075C202.482 197.075 176.678 204.331 150.694 204.67C124.709 204.324 98.9056 197.075 98.9056 197.075C98.2766 203.577 99.0864 209.104 99.0864 209.104C114.567 215.221 139.411 216.258 148.807 216.423V216.455C148.807 216.455 149.483 216.463 150.694 216.447C151.904 216.455 152.58 216.455 152.58 216.455V216.423C161.976 216.25 186.828 215.213 202.301 209.104C202.301 209.112 203.118 203.577 202.482 197.075Z" fill="#FF2434"/>
<g opacity="0.25">
<path d="M55.2471 193.505C55.2471 193.505 59.021 198.309 66.3799 200.267C73.7389 202.232 77.9058 199.433 77.9058 199.433L77.0725 202.232C77.0725 202.232 87.9851 201.965 92.7732 199.536C97.5534 197.106 100.321 181.563 102.656 174.581C102.656 174.581 106.689 203.262 148.815 204.638C148.815 204.638 125.118 203.018 113.663 200.479C102.208 197.94 99.739 197.303 99.739 197.303L98.8821 198.215L98.5912 203.443C98.5912 203.443 98.5912 204.913 98.1509 205.063C97.7106 205.212 90.5718 208.915 80.807 208.373C71.0422 207.83 59.5949 201.36 59.5949 201.36C59.5949 201.36 53.5803 196.65 55.2471 193.505Z" fill="#0F0F14"/>
</g>
<g opacity="0.25">
<path d="M246.148 193.505C246.148 193.505 242.374 198.309 235.015 200.267C227.656 202.232 223.489 199.433 223.489 199.433L224.323 202.232C224.323 202.232 213.41 201.965 208.622 199.536C203.842 197.106 201.074 181.563 198.739 174.581C198.739 174.581 194.706 203.262 152.58 204.638C152.58 204.638 176.277 203.018 187.732 200.479C199.187 197.94 201.656 197.303 201.656 197.303L202.513 198.215L202.804 203.443C202.804 203.443 202.804 204.913 203.244 205.063C203.684 205.212 210.823 208.915 220.588 208.373C230.353 207.83 241.8 201.36 241.8 201.36C241.8 201.36 247.815 196.65 246.148 193.505Z" fill="#0F0F14"/>
</g>
<g opacity="0.25">
<path d="M201.357 197.476L186.199 200.872C186.199 200.872 176.08 212.139 151.661 212.139H150.701H149.742C125.322 212.139 115.204 200.872 115.204 200.872L100.038 197.476L98.882 198.215L99.0864 209.112C99.0864 209.112 100.274 209.568 100.439 209.623C100.596 209.686 100.73 209.725 113.301 213.058C125.873 216.392 150.694 216.455 150.694 216.455C150.694 216.455 175.514 216.384 188.086 213.058C200.657 209.725 200.791 209.686 200.948 209.623C201.106 209.56 202.301 209.112 202.301 209.112L202.505 198.215L201.357 197.476Z" fill="#0F0F14"/>
</g>
<g opacity="0.25">
<path d="M108.812 156.993C108.812 156.993 121.934 167.599 150.694 167.599C179.453 167.599 191.42 157.764 191.42 157.764C191.42 157.764 166.096 162.576 150.355 162.576C134.615 162.576 110.974 158.251 108.812 156.993Z" fill="#0F0F14"/>
</g>
<g opacity="0.25">
<path d="M151.574 229.703H149.821C124.497 229.703 100.572 213.224 100.572 213.224C101.697 217.194 103.709 222.249 115.094 229.805C126.478 237.36 149.821 237.164 149.821 237.164H151.574C151.574 237.164 174.917 237.36 186.301 229.805C197.686 222.249 199.698 217.194 200.823 213.224C200.815 213.224 176.89 229.703 151.574 229.703Z" fill="#0F0F14"/>
</g>
<path d="M201.719 204.685C201.593 198.954 201.169 193.191 200.453 187.491C199.801 181.72 198.417 176.185 197.324 170.469C197.3 170.375 197.45 170.312 197.497 170.406C200.225 175.619 201.349 181.468 202.379 187.2C203.315 192.986 203.897 198.804 203.928 204.677C203.889 206.124 201.758 206.14 201.719 204.685Z" fill="#0F0F14"/>
<path d="M153.099 238.264H148.288C129.191 238.264 115.062 233.712 106.296 224.726C99.3773 217.634 97.8756 209.843 97.5454 206.423C86.6957 211.415 75.1619 208.774 74.6509 208.656C74.187 208.538 63.3529 205.841 57.9988 201.257C53.596 197.491 53.2029 194.708 53.2973 193.513C51.544 190.793 51.945 188.827 52.2988 187.962C51.9135 185.895 52.1808 184.228 53.0928 182.986C53.8397 181.979 54.8225 181.523 55.4987 181.327C56.3556 178.937 58.1875 177.679 59.7049 177.294C60.4439 177.105 61.1515 177.113 61.7491 177.301C61.9378 176.9 62.2051 176.539 62.5353 176.232C63.7067 175.147 65.5937 174.785 68.2904 175.147C72.9133 175.76 76.4356 179.841 77.2847 180.902C80.0364 181.956 86.5699 180.965 93.2134 169.974C100.793 157.449 106.996 155.971 107.255 155.916C107.46 155.869 107.68 155.885 107.876 155.964C117.924 159.698 149.145 161.412 150.694 161.498C152.235 161.42 183.463 159.698 193.511 155.964C193.707 155.893 193.92 155.877 194.132 155.916C194.391 155.971 200.602 157.449 208.174 169.974C214.817 180.965 221.351 181.956 224.102 180.902C224.952 179.833 228.474 175.76 233.097 175.147C235.793 174.793 237.68 175.147 238.852 176.232C239.182 176.539 239.442 176.9 239.638 177.301C240.228 177.113 240.935 177.105 241.682 177.294C243.2 177.679 245.032 178.937 245.888 181.327C246.565 181.531 247.547 181.979 248.294 182.986C249.206 184.22 249.474 185.895 249.088 187.962C249.442 188.827 249.843 190.785 248.09 193.513C248.184 194.708 247.791 197.491 243.388 201.257C238.034 205.841 227.2 208.538 226.744 208.656C226.225 208.774 214.691 211.423 203.842 206.423C203.519 209.843 202.01 217.634 195.091 224.726C186.325 233.704 172.197 238.264 153.099 238.264ZM98.5675 203.585C98.7719 203.585 98.9685 203.64 99.1493 203.75C99.4795 203.954 99.6839 204.324 99.6761 204.717C99.6761 204.811 99.566 214.694 107.916 223.224C116.257 231.739 129.835 236.063 148.288 236.063H153.099C171.583 236.063 185.177 231.731 193.511 223.193C201.86 214.631 201.719 204.819 201.719 204.725C201.711 204.331 201.908 203.962 202.246 203.758C202.576 203.553 203 203.537 203.346 203.726C213.858 209.34 226.107 206.549 226.233 206.517C226.327 206.494 237.012 203.828 241.957 199.591C246.132 196.021 245.928 193.851 245.888 193.607C245.739 193.262 245.818 192.947 246.038 192.633C247.815 190.101 247.052 188.772 247.021 188.717C246.808 188.458 246.793 188.206 246.863 187.876C247.201 186.319 247.091 185.093 246.541 184.322C245.936 183.489 244.969 183.371 244.929 183.371C244.473 183.324 244.08 182.994 243.97 182.553C243.498 180.721 242.248 179.754 241.242 179.456C240.644 179.283 240.291 179.385 240.228 179.448C240.023 179.66 240.11 180.391 240.188 181.044C240.298 182.003 240.44 183.19 239.921 184.275C239.174 185.84 237.091 186.351 235.581 185.934C234.158 185.533 233.364 184.393 233.513 182.954C233.718 180.997 235.479 180.305 236.643 179.849C237.044 179.691 237.72 179.424 237.83 179.251C237.877 178.323 237.492 177.97 237.374 177.852C236.737 177.262 235.33 177.081 233.403 177.333C229.126 177.899 225.73 182.42 225.698 182.459C225.588 182.608 225.439 182.726 225.274 182.805C221.822 184.401 213.937 183.74 206.303 171.114C200.178 160.987 195.13 158.597 193.935 158.157C183.031 161.994 152.093 163.629 150.764 163.7C150.725 163.7 150.686 163.7 150.646 163.7C149.318 163.629 118.38 161.994 107.475 158.157C106.296 158.597 101.249 160.964 95.1082 171.114C87.474 183.733 79.5883 184.401 76.1368 182.805C75.9717 182.726 75.8223 182.608 75.7122 182.459C75.6808 182.412 72.2843 177.899 68.0073 177.333C66.0811 177.073 64.6738 177.262 64.037 177.852C63.9112 177.97 63.5338 178.323 63.5888 179.267C63.691 179.416 64.3672 179.684 64.7681 179.841C65.9317 180.297 67.6929 180.989 67.8973 182.946C68.0466 184.385 67.2526 185.525 65.8295 185.926C64.3279 186.351 62.2365 185.84 61.4896 184.267C60.9707 183.182 61.1122 181.995 61.2223 181.036C61.3009 180.391 61.3874 179.66 61.183 179.44C61.1201 179.385 60.7663 179.275 60.1688 179.448C59.1624 179.739 57.9123 180.706 57.4406 182.545C57.3227 183.001 56.9296 183.332 56.4657 183.371C56.4343 183.371 55.4672 183.489 54.8697 184.322C54.3193 185.093 54.2093 186.319 54.5473 187.876C54.6181 188.198 54.5788 188.481 54.3744 188.741C54.3586 188.764 53.6039 190.093 55.3729 192.625C55.593 192.939 55.6716 193.254 55.5222 193.6C55.4829 193.843 55.2785 196.013 59.4455 199.583C64.3986 203.828 75.0754 206.486 75.1776 206.509C75.2877 206.533 87.5369 209.324 98.0486 203.71C98.2137 203.624 98.3945 203.585 98.5675 203.585ZM238.026 181.649C237.822 181.736 237.625 181.814 237.437 181.893C236.297 182.341 235.754 182.608 235.699 183.174C235.676 183.426 235.691 183.67 236.171 183.803C236.878 184 237.743 183.701 237.924 183.324C238.129 182.884 238.097 182.27 238.026 181.649ZM63.3608 181.649C63.2979 182.278 63.2665 182.891 63.4709 183.316C63.6517 183.693 64.5165 184 65.2241 183.796C65.7116 183.662 65.7273 183.418 65.6959 183.167C65.6408 182.608 65.0905 182.333 63.9583 181.885C63.7696 181.814 63.5652 181.736 63.3608 181.649Z" fill="#0F0F14"/>
<path d="M97.4668 204.685C97.4982 198.82 98.08 192.994 99.0156 187.208C100.046 181.468 101.17 175.627 103.898 170.414C103.945 170.328 104.095 170.375 104.071 170.477C103.56 173.362 102.892 176.154 102.326 178.976C101.201 184.621 100.509 190.345 100.093 196.084C99.8962 198.946 99.7311 201.855 99.6761 204.709C99.6053 206.132 97.5061 206.132 97.4668 204.685Z" fill="#0F0F14"/>
<path d="M226.477 208.498C226.147 208.498 225.832 208.325 225.667 208.011C218.552 194.779 223.725 181.979 223.945 181.445C224.142 180.973 224.676 180.753 225.148 180.949C225.62 181.146 225.84 181.681 225.643 182.152C225.588 182.278 220.596 194.7 227.287 207.146C227.53 207.594 227.357 208.152 226.909 208.388C226.776 208.467 226.626 208.498 226.477 208.498Z" fill="#0F0F14"/>
<path d="M246.431 194.024C245.896 193.725 245.118 193.293 244.568 193.23C243.294 193.647 242.028 194.347 240.707 194.7C239.929 194.936 239.056 195.054 238.223 194.763C238.16 194.74 238.144 194.645 238.207 194.614C238.93 194.15 239.567 193.828 240.251 193.505C241.509 192.923 242.618 192.082 243.939 191.54C244.701 191.225 245.66 191.555 246.289 191.846C247.021 192.2 248.302 192.75 247.681 193.757C247.406 194.174 246.848 194.284 246.431 194.024Z" fill="#0F0F14"/>
<path d="M227.043 191.084C230.416 190.557 234.795 191.823 236.745 194.771C236.894 194.999 236.588 195.266 236.383 195.101C233.576 193.136 230.219 192.625 227.027 191.579C226.768 191.508 226.784 191.123 227.043 191.084Z" fill="#0F0F14"/>
<path d="M247.304 188.772C246.604 188.206 245.598 187.978 244.843 188.552C243.75 189.236 242.728 189.999 241.619 190.706C240.88 191.186 240.047 191.603 239.096 191.689C239.025 191.697 238.978 191.61 239.025 191.555C240.165 190.125 241.478 189.165 242.807 187.955C244.033 186.83 245.425 185.926 247.131 186.571C247.681 186.767 248.121 187.035 248.562 187.436C249.419 188.293 248.224 189.558 247.304 188.772Z" fill="#0F0F14"/>
<path d="M245.771 182.805C244.866 184.079 243.821 185.156 242.641 186.154C241.431 187.105 240.243 188.198 238.624 188.34C238.553 188.348 238.506 188.269 238.545 188.206C238.986 187.499 239.489 187.011 240.015 186.516C241.517 185.101 242.972 183.332 244.285 181.72C245.024 180.792 246.423 181.814 245.771 182.805Z" fill="#0F0F14"/>
<path d="M74.9104 208.498C74.761 208.498 74.6116 208.467 74.4779 208.388C74.0298 208.145 73.8647 207.594 74.1006 207.146C80.7912 194.7 75.7909 182.278 75.7437 182.152C75.5472 181.681 75.7752 181.146 76.2391 180.949C76.7108 180.753 77.2454 180.981 77.442 181.445C77.6621 181.979 82.8354 194.779 75.7202 208.011C75.5551 208.325 75.2406 208.498 74.9104 208.498Z" fill="#0F0F14"/>
<path d="M53.9655 192.483C54.9719 191.87 56.1984 191.131 57.4563 191.54C58.7693 192.082 59.8779 192.923 61.1437 193.505C61.8277 193.828 62.4724 194.15 63.1878 194.614C63.2507 194.645 63.235 194.747 63.1721 194.763C62.3387 195.054 61.466 194.928 60.6877 194.7C59.5555 194.378 58.4312 193.867 57.362 193.411C57.134 193.332 56.961 193.238 56.7802 193.238C56.222 193.324 55.4672 193.749 54.9326 194.048C53.9026 194.606 53.0064 193.159 53.9655 192.483Z" fill="#0F0F14"/>
<path d="M74.3757 191.571C71.1758 192.617 67.8187 193.128 65.0198 195.093C64.9097 195.18 64.7446 195.156 64.666 195.031C64.6109 194.944 64.6109 194.842 64.6581 194.763C65.1456 193.985 65.8374 193.34 66.5922 192.813C68.1017 191.815 69.8786 191.217 71.6711 191.013C72.5674 190.926 73.4559 190.903 74.36 191.076C74.4937 191.099 74.588 191.233 74.5566 191.367C74.533 191.477 74.4622 191.548 74.3757 191.571Z" fill="#0F0F14"/>
<path d="M52.8334 187.436C53.887 186.453 55.5066 186.021 56.851 186.689C57.5036 187.019 58.046 187.506 58.5885 187.955C59.9172 189.173 61.2223 190.125 62.3702 191.555C62.4174 191.61 62.3702 191.697 62.2995 191.689C60.4519 191.485 59.0838 190.18 57.6058 189.244C56.222 188.293 55.5066 187.687 53.9734 188.859C53.0457 189.488 52.0158 188.198 52.8334 187.436Z" fill="#0F0F14"/>
<path d="M57.1104 181.728C57.9123 182.711 59.0209 184.071 59.87 184.983C60.8449 186.131 61.9928 186.885 62.8419 188.206C62.8812 188.261 62.8341 188.348 62.7633 188.34C61.9378 188.277 61.2144 187.947 60.5855 187.522C58.6593 186.249 56.9689 184.684 55.6166 182.805C55.3257 182.388 55.4279 181.814 55.8446 181.523C56.2613 181.24 56.8195 181.335 57.1104 181.728Z" fill="#0F0F14"/>
<path d="M152.022 217.563C151.7 217.563 151.252 217.563 150.686 217.556C149.483 217.571 148.799 217.563 148.799 217.563C148.705 217.563 148.618 217.548 148.532 217.532C138.476 217.335 114.095 216.227 98.6776 210.142C98.3081 210 98.0487 209.67 97.9936 209.277C97.9622 209.049 97.1681 203.537 97.8049 196.98C97.8364 196.658 98.0094 196.359 98.2767 196.178C98.544 195.998 98.8821 195.943 99.1965 196.029C99.456 196.1 125.165 203.246 150.701 203.585C176.206 203.246 201.916 196.1 202.175 196.029C202.489 195.943 202.828 195.998 203.095 196.178C203.362 196.359 203.535 196.658 203.567 196.98C204.203 203.545 203.417 209.049 203.378 209.277C203.323 209.67 203.056 210 202.694 210.142C187.276 216.235 162.88 217.343 152.84 217.532C152.754 217.556 152.667 217.563 152.581 217.563C152.588 217.563 152.392 217.563 152.022 217.563ZM150.686 215.354C151.472 215.362 152.03 215.362 152.321 215.362C152.4 215.346 152.478 215.331 152.557 215.331C162.196 215.158 186.042 214.12 201.287 208.325C201.452 206.855 201.805 202.987 201.491 198.49C195.932 199.937 173.258 205.487 150.709 205.786C128.129 205.487 105.455 199.944 99.8963 198.49C99.5818 202.987 99.9356 206.855 100.101 208.325C115.345 214.128 139.191 215.158 148.83 215.331C148.917 215.331 148.995 215.346 149.074 215.362C149.373 215.362 149.923 215.362 150.686 215.354Z" fill="#0F0F14"/>
<path d="M185.657 201.792C185.515 201.792 185.373 201.761 185.24 201.69C156.472 186.87 136.715 162.458 136.518 162.214C136.204 161.821 136.267 161.239 136.66 160.925C137.053 160.61 137.635 160.673 137.949 161.066C138.146 161.31 157.675 185.423 186.081 200.054C186.529 200.29 186.71 200.841 186.474 201.289C186.309 201.611 185.987 201.792 185.657 201.792Z" fill="#0F0F14"/>
<path d="M172.33 203.93C172.173 203.93 172.016 203.891 171.874 203.805C171.583 203.64 142.824 186.846 124.803 160.972C124.513 160.555 124.615 159.981 125.031 159.69C125.448 159.399 126.022 159.501 126.313 159.918C144.089 185.447 172.503 202.044 172.794 202.209C173.234 202.46 173.384 203.026 173.132 203.467C172.959 203.765 172.645 203.93 172.33 203.93Z" fill="#0F0F14"/>
<path d="M149.734 175.878C149.451 175.878 149.168 175.745 148.995 175.501C148.697 175.092 148.783 174.518 149.192 174.219C149.271 174.164 156.865 168.567 160.694 161.734C160.946 161.294 161.504 161.137 161.944 161.381C162.385 161.632 162.542 162.19 162.298 162.631C158.273 169.817 150.599 175.462 150.277 175.698C150.112 175.823 149.923 175.878 149.734 175.878Z" fill="#0F0F14"/>
<path d="M156.504 181.979C156.229 181.979 155.961 181.861 155.78 181.633C155.466 181.232 155.537 180.659 155.93 180.344C156.04 180.258 166.897 171.586 170.577 160.917C170.742 160.437 171.269 160.185 171.748 160.351C172.228 160.516 172.48 161.042 172.315 161.522C168.454 172.702 157.534 181.421 157.07 181.791C156.905 181.916 156.7 181.979 156.504 181.979Z" fill="#0F0F14"/>
<path d="M225.942 63.7798C225.942 63.7798 228.254 56.7589 236.564 52.1438C244.874 47.5287 252.469 41.294 254.057 25.5619C253.806 21.7645 244.041 17.0472 241.368 18.2973C241.368 18.2973 240.479 31.9538 234.276 37.6224C228.073 43.2832 212.136 51.8136 211.515 60.4698" fill="#FF2434"/>
<g opacity="0.25">
<path d="M221.988 60.9966C221.988 60.9966 224.299 53.9757 232.609 49.3606C240.92 44.7455 248.514 38.5109 250.103 22.7787C250.04 21.8667 249.426 20.8996 248.499 19.9798C251.353 21.4814 253.924 23.6435 254.057 25.5698C252.469 41.3019 244.874 47.5366 236.564 52.1517C228.254 56.7668 225.942 63.7877 225.942 63.7877L211.515 60.4777C211.562 59.8802 211.68 59.2748 211.861 58.6773L221.988 60.9966Z" fill="#0F0F14"/>
</g>
<path d="M225.942 64.8805C225.824 64.8805 225.714 64.8648 225.596 64.8255C225.022 64.6368 224.708 64.0157 224.897 63.4339C224.999 63.1272 227.444 55.9491 236.029 51.1768C243.365 47.1042 251.321 41.4356 252.949 25.554C252.807 24.4297 251.211 22.818 248.852 21.4264C246.109 19.8068 243.608 19.1621 242.406 19.1935C242.099 22.3148 240.66 33.2982 235.031 38.4401C233.293 40.0282 230.825 41.8208 228.206 43.7313C221.453 48.6452 213.04 54.7698 212.624 60.5563C212.577 61.1617 212.05 61.6177 211.444 61.5784C210.839 61.5312 210.383 61.0045 210.422 60.3991C210.91 53.5826 219.778 47.1356 226.909 41.9466C229.472 40.0754 231.902 38.3143 233.545 36.8126C239.347 31.5135 240.267 18.3602 240.275 18.2344C240.298 17.8334 240.542 17.4796 240.904 17.3066C242.924 16.3553 247.021 17.7941 249.969 19.5395C251.832 20.6402 254.977 22.873 255.158 25.499C255.166 25.5619 255.158 25.6248 255.158 25.6798C253.523 41.8916 245.519 48.4407 237.106 53.1187C229.307 57.4508 227.019 64.0707 226.996 64.1336C226.831 64.5896 226.406 64.8805 225.942 64.8805Z" fill="#0F0F14"/>
<path d="M220.431 74.0478C220.431 74.0478 226.154 79.4333 242.295 81.0608C258.444 82.6883 265.701 75.2114 266.873 73.065C268.044 70.9186 266.676 63.2766 264.239 62.6005C261.801 61.9243 254.301 67.6951 247.178 68.5521C240.055 69.4091 223.3 61.4369 223.3 61.4369C223.3 61.4369 221.815 60.1868 218.056 60.1396C214.298 60.0924 211.499 60.7529 211.499 60.7529L212.01 63.2609" fill="#FF2434"/>
<path d="M246.683 82.3895C245.259 82.3895 243.766 82.3187 242.185 82.1615C225.856 80.5183 219.92 75.0856 219.676 74.8497C219.236 74.433 219.212 73.7333 219.629 73.293C220.046 72.8527 220.737 72.8291 221.186 73.2458C221.272 73.3245 226.98 78.4113 242.413 79.968C260.056 81.737 265.858 72.6326 265.913 72.5382C266.479 71.5004 266.22 67.8288 265.166 65.3444C264.655 64.1415 264.168 63.7248 263.956 63.6697C263.232 63.4732 260.716 64.6761 258.696 65.6431C255.425 67.2156 251.353 69.1654 247.319 69.645C240.047 70.5177 223.914 62.9386 222.868 62.4432C222.475 62.286 217.066 60.2104 212.561 61.5548L212.466 62.9543C212.427 63.5597 211.893 64.0157 211.287 63.9764C210.682 63.937 210.226 63.4103 210.265 62.797L210.414 60.6664C210.446 60.2418 210.721 59.8644 211.122 59.7151C216.72 57.5687 223.458 60.2969 223.741 60.4148C223.756 60.4227 223.78 60.4305 223.796 60.4384C223.961 60.517 240.354 68.2534 247.068 67.4593C250.739 67.019 254.631 65.1557 257.752 63.654C260.819 62.1838 263.036 61.1224 264.553 61.5391C265.615 61.83 266.503 62.8206 267.211 64.4795C268.374 67.2156 268.901 71.697 267.863 73.5918C266.495 76.0683 259.907 82.3895 246.683 82.3895Z" fill="#0F0F14"/>
<g opacity="0.25">
<path d="M241.918 75.5416C258.067 77.169 265.324 69.6921 266.495 67.5458C266.613 67.3256 266.707 67.0426 266.778 66.7202C267.399 69.1261 267.509 71.9014 266.88 73.065C265.709 75.2114 258.452 82.6883 242.303 81.0608C226.154 79.4333 220.439 74.0478 220.439 74.0478L220.352 71.8778C221.209 71.3353 220.753 69.5506 220.753 69.5506C224.197 71.0916 233.93 74.7318 241.918 75.5416Z" fill="#0F0F14"/>
</g>
<path d="M191.192 158.086C191.192 158.086 149.318 167.371 112.9 160.13C76.4827 152.889 66.8673 137.385 76.3098 117.352C76.3098 117.352 69.7999 74.7475 94.55 49.0619C119.3 23.3762 185.02 16.489 211.35 60.4777C222.294 80.1724 221.044 114.915 221.044 114.915C221.044 114.915 240.157 145.224 191.192 158.086Z" fill="#3E4049"/>
<g opacity="0.4">
<path d="M73.9669 123.163C74.0455 122.99 74.1242 122.825 74.2028 122.652C74.2028 122.652 74.1949 122.581 74.1713 122.455C74.0927 122.691 74.0298 122.927 73.9669 123.163Z" fill="white"/>
</g>
<g opacity="0.4">
<path d="M222.09 138.517C225.368 132.409 225.054 126.347 223.953 121.842C224.975 126.504 225.219 132.629 222.09 138.517Z" fill="white"/>
</g>
<g opacity="0.4">
<path d="M219.865 90.6605C221.429 103.68 221.044 114.546 221.044 114.546C221.044 114.546 222.876 117.455 223.953 121.842C222.915 117.124 221.068 113.885 221.068 113.885C221.068 113.885 221.728 103.389 219.865 90.6605Z" fill="white"/>
</g>
<g opacity="0.4">
<path d="M94.5501 48.6845C87.4741 56.0277 82.9534 64.7547 80.1073 73.466C82.9377 66.6966 86.9081 60.1082 92.443 54.3609C105.966 40.327 131.722 31.9066 156.598 34.3282C156.567 34.3832 156.543 34.4382 156.527 34.5011C156.008 36.3566 162.33 39.7373 170.648 42.0409C178.085 44.1087 184.595 44.6119 186.262 43.3696C195.319 48.4879 205.399 55.2729 211.358 65.2264C213.394 68.898 215.651 72.837 216.885 76.941C218.277 81.5482 219.228 86.2341 219.873 90.6526C218.638 80.3846 216.185 68.7801 211.358 60.0924C185.02 16.1116 119.3 22.9988 94.5501 48.6845Z" fill="white"/>
</g>
<g opacity="0.25">
<path d="M121.564 151.631C85.139 144.39 75.5314 128.886 84.9739 108.854C84.9739 108.854 79.0537 70.0931 99.9827 44.2266C98.0093 45.7519 96.1853 47.3636 94.55 49.0697C69.7999 74.7554 76.3098 117.36 76.3098 117.36C66.8673 137.393 76.4827 152.897 112.9 160.138C149.326 167.379 191.192 158.094 191.192 158.094C207.961 153.691 216.751 147.237 221.052 140.656C216.059 144.044 209.204 147.134 199.856 149.595C199.856 149.579 157.982 158.865 121.564 151.631Z" fill="#0F0F14"/>
</g>
<path d="M105.439 72.0586C98.5754 73.3638 93.41 79.0402 92.7024 85.9668C91.6253 96.5571 90.7919 117.038 99.2987 123.98C110.966 133.509 142.714 130.451 165.128 129.83C187.551 129.209 202.356 128.037 205.469 111.181C208.575 94.3164 202.647 74.8104 200.547 73.3009C198.448 71.7992 174.453 72.1844 150.159 72.208C133.947 72.2238 116.823 69.8966 105.439 72.0586Z" fill="#EDBC9A"/>
<path d="M143.649 163.967C133.57 163.967 122.893 163.236 112.688 161.208C91.9555 157.088 78.9593 150.067 74.0534 140.341C70.7277 133.753 71.1129 125.962 75.1776 117.18C74.9103 115.23 73.7231 105.371 75.0597 92.7204C76.4199 79.9051 80.7598 61.7907 93.7638 48.2992C100.627 41.1761 110.903 35.2559 122.696 31.6236C134.82 27.8891 147.808 26.6705 160.262 28.0856C183.101 30.6959 201.585 42.0016 212.309 59.9116C222.852 78.883 222.278 110.819 222.168 114.632C223.246 116.48 228.427 126.276 224.228 136.929C220.25 147.009 209.235 154.485 191.482 159.148C191.467 159.148 191.451 159.156 191.443 159.156C191.129 159.226 169.327 163.967 143.649 163.967ZM150.293 29.7288C128.908 29.7288 107.295 37.4259 95.3441 49.8245C82.7882 62.8521 78.5741 80.4397 77.2454 92.8933C75.7988 106.463 77.379 117.077 77.3948 117.18C77.4262 117.4 77.3948 117.62 77.3004 117.816C73.4087 126.079 72.9762 133.321 76.011 139.343C80.5947 148.432 93.0798 155.059 113.105 159.038C148.571 166.082 189.816 157.245 190.924 157.001C207.946 152.528 218.457 145.499 222.161 136.112C226.327 125.553 220.171 115.599 220.109 115.497C219.991 115.308 219.928 115.088 219.936 114.868C219.951 114.522 221.044 80.2038 210.383 61.0045C200.044 43.7313 182.142 32.8029 160.002 30.2713C156.795 29.9097 153.548 29.7288 150.293 29.7288Z" fill="#0F0F14"/>
<path d="M133.837 131.905C119.127 131.905 105.596 130.553 98.599 124.837C89.7934 117.643 90.4381 97.3276 91.6017 85.8567C92.3486 78.4742 97.9543 72.3574 105.227 70.9737C112.719 69.5506 122.555 70.0381 132.98 70.5491C138.578 70.8243 144.357 71.1073 150.017 71.1073C150.065 71.1073 150.112 71.1073 150.159 71.1073C154.255 71.1073 158.344 71.0916 162.322 71.0759C188.495 70.9815 199.337 71.0837 201.184 72.4124C203.897 74.3623 209.691 94.3243 206.546 111.385C205.013 119.68 200.681 124.845 192.906 127.636C185.837 130.176 176.552 130.616 165.152 130.938C161.834 131.033 158.351 131.174 154.672 131.324C147.848 131.607 140.717 131.905 133.837 131.905ZM105.644 73.1436C99.3302 74.3387 94.4557 79.6613 93.8031 86.0769C92.899 94.9611 91.6961 116.346 99.9985 123.131C109.606 130.985 134.553 129.948 154.593 129.122C158.288 128.973 161.771 128.823 165.105 128.729C187.551 128.108 201.452 126.913 204.392 110.976C207.466 94.3085 201.522 75.573 199.903 74.1893C198.047 73.1594 179.076 73.2222 162.337 73.2773C158.359 73.293 154.271 73.3009 150.167 73.3087C150.12 73.3087 150.073 73.3087 150.025 73.3087C144.317 73.3087 138.507 73.0257 132.886 72.7427C122.594 72.2473 112.877 71.7677 105.644 73.1436Z" fill="#0F0F14"/>
<path d="M219.495 76.0841C219.495 76.0841 141.07 88.4591 78.4876 79.4805C78.4876 79.4805 73.9118 78.9302 75.2248 71.3196C76.5378 63.7169 86.3104 64.9355 86.3104 64.9355C86.3104 64.9355 139.231 68.505 158.304 67.9153C177.37 67.3256 211.822 63.0408 214.33 63.0801C216.83 63.1272 222.483 67.9782 219.495 76.0841Z" fill="#FF2434"/>
<g opacity="0.25">
<path d="M220.266 70.8243C220.266 70.8243 141.841 83.1993 79.2581 74.2207C79.2581 74.2207 76.1369 73.8434 75.7909 69.417C75.5393 69.983 75.3428 70.612 75.217 71.3196C73.904 78.9223 78.4798 79.4805 78.4798 79.4805C141.062 88.4591 219.487 76.0841 219.487 76.0841C220.227 74.0871 220.431 72.2945 220.297 70.7142C220.289 70.7535 220.282 70.7928 220.266 70.8243Z" fill="#0F0F14"/>
</g>
<g opacity="0.25">
<path d="M220.203 75.062C220.203 75.062 141.778 87.437 79.1952 78.4584C79.1952 78.4584 76.0739 78.0811 75.728 73.6547C75.4764 74.2207 75.2799 74.8497 75.1541 75.5573C73.849 83.1679 78.4169 83.7182 78.4169 83.7182C141 92.6968 218.182 80.5105 218.182 80.5105C218.921 78.5135 217.742 77.0275 217.601 75.4551C217.593 75.4865 220.219 75.0305 220.203 75.062Z" fill="#0F0F14"/>
</g>
<path d="M129.804 83.8204C112.664 83.8204 94.9116 82.9477 78.3303 80.5734C78.1652 80.5576 76.4984 80.306 75.2248 78.6C73.9432 76.8781 73.5816 74.3701 74.1398 71.1309C75.3113 64.3144 82.6624 63.3788 86.4126 63.8427C87.9379 63.9449 139.655 67.3964 158.265 66.8146C171.253 66.4136 191.577 64.2673 203.724 62.9936C210.312 62.3017 213.512 61.9558 214.338 61.9794C216.059 62.003 218.174 63.426 219.597 65.5016C220.8 67.2627 222.53 71.0208 220.525 76.4615C220.384 76.8388 220.053 77.1061 219.66 77.169C219.086 77.2634 176.772 83.8204 129.804 83.8204ZM84.738 65.9655C82.2064 65.9655 77.1589 66.5945 76.3098 71.5162C75.8695 74.0635 76.0975 76.0448 76.9623 77.2477C77.6778 78.2383 78.5976 78.3877 78.6369 78.3955C137.344 86.8159 210.973 76.257 218.67 75.1013C219.998 70.9344 218.709 68.104 217.781 66.7596C216.578 65.0063 215.022 64.2044 214.298 64.1965C213.567 64.1965 209.322 64.6289 203.944 65.195C191.773 66.4765 171.395 68.6229 158.32 69.0317C139.411 69.6214 86.7507 66.0913 86.2239 66.052C86.2003 66.052 86.1846 66.052 86.161 66.0441C86.0824 66.0284 85.5399 65.9655 84.738 65.9655Z" fill="#0F0F14"/>
<path d="M161.19 115.819C167.078 111.047 175.514 110.151 182.63 112.352C185.02 113.123 187.268 114.278 189.202 115.812C189.485 116.04 189.533 116.448 189.305 116.731C189.132 116.944 188.856 117.022 188.605 116.952C185.208 116 182.001 115.308 178.565 115.104C175.216 114.9 171.906 115.159 168.572 115.662C166.347 115.992 164.083 116.456 161.811 116.944C161.142 117.14 160.663 116.275 161.19 115.819Z" fill="#0F0F14"/>
<path d="M109.968 115.804C116.029 110.89 124.709 109.97 132.037 112.234C134.49 113.028 136.817 114.215 138.798 115.796C139.089 116.024 139.136 116.448 138.908 116.739C138.735 116.959 138.444 117.038 138.193 116.967C134.702 115.992 131.4 115.277 127.854 115.065C124.403 114.852 120.998 115.12 117.563 115.639C115.275 115.977 112.947 116.456 110.605 116.959C109.92 117.164 109.425 116.275 109.968 115.804Z" fill="#0F0F14"/>
<path d="M159.947 217.257C159.947 217.257 167.228 236.527 167.055 242.738L156.81 241.96L149.577 218.31" fill="#FF2434"/>
<g opacity="0.25">
<path d="M153.65 217.894L159.609 237.392L166.426 237.911C166.842 239.853 167.086 241.535 167.055 242.738L156.81 241.96L149.577 218.31L153.65 217.894Z" fill="#0F0F14"/>
</g>
<path d="M167.055 243.839C167.023 243.839 167 243.839 166.968 243.839L156.724 243.06C156.268 243.029 155.883 242.714 155.757 242.282L148.524 218.633C148.343 218.051 148.673 217.438 149.255 217.257C149.837 217.076 150.45 217.406 150.631 217.988L157.644 240.914L165.907 241.543C165.301 234.632 158.98 217.823 158.91 217.65C158.697 217.084 158.98 216.447 159.554 216.227C160.12 216.015 160.757 216.298 160.977 216.872C161.276 217.666 168.328 236.417 168.155 242.77C168.148 243.068 168.014 243.359 167.794 243.556C167.589 243.737 167.33 243.839 167.055 243.839Z" fill="#0F0F14"/>
<path d="M150.308 204.559C150.308 204.559 152.722 198.679 160.647 200.463C168.564 202.248 166.198 214.253 161.763 217.65C157.329 221.046 152.478 217.563 152.478 217.563C152.478 217.563 145.976 220.268 140.088 216.18C134.199 212.091 133.782 202.24 139.128 201.116C144.475 199.992 148.107 202.728 150.308 204.559Z" fill="#FF2434"/>
<g opacity="0.25">
<path d="M135.268 205.77C135.268 205.77 140.276 212.445 146.362 213.169C152.447 213.892 153.713 211.305 153.713 211.305L153.736 210.322C153.736 210.322 159.295 214.191 161.842 213.137C164.389 212.084 164.924 210.44 164.924 210.44L165.797 209.041C165.797 209.041 165.325 217.068 160.513 218.42C155.71 219.765 153.312 218.051 153.312 218.051L151.503 217.453C151.503 217.453 144.42 219.993 139.136 215.433C133.853 210.873 135.268 205.77 135.268 205.77Z" fill="#0F0F14"/>
</g>
<path d="M141.487 216.982C141.487 216.982 133.177 235.851 133.012 242.062L143.28 241.81L151.779 218.57" fill="#FF2434"/>
<g opacity="0.25">
<path d="M147.737 217.941L140.732 237.101L133.9 237.266C133.381 239.184 133.043 240.851 133.012 242.054L143.28 241.802L151.779 218.562L147.737 217.941Z" fill="#0F0F14"/>
</g>
<path d="M133.012 243.155C132.721 243.155 132.438 243.037 132.233 242.832C132.021 242.62 131.903 242.329 131.911 242.023C132.084 235.67 140.135 217.312 140.481 216.534C140.724 215.975 141.377 215.724 141.935 215.967C142.493 216.211 142.745 216.864 142.501 217.422C142.423 217.595 135.205 234.058 134.222 240.922L142.509 240.717L150.749 218.177C150.961 217.603 151.59 217.312 152.164 217.516C152.738 217.729 153.029 218.358 152.824 218.931L144.325 242.172C144.168 242.597 143.767 242.887 143.319 242.895L133.051 243.147C133.027 243.155 133.019 243.155 133.012 243.155Z" fill="#0F0F14"/>
<path d="M157.424 220.221C155.372 220.221 153.516 219.505 152.329 218.782C150.528 219.372 144.805 220.787 139.459 217.084C135.174 214.112 133.703 208.75 134.466 204.984C135.001 202.319 136.62 200.518 138.9 200.039C144.082 198.946 147.887 201.273 150.017 202.908C151.33 201.069 154.562 197.963 160.891 199.386C163.933 200.07 165.993 202.201 166.693 205.385C167.684 209.89 165.695 216.03 162.432 218.53C160.789 219.773 159.043 220.221 157.424 220.221ZM152.47 216.455C152.698 216.455 152.926 216.526 153.115 216.659C153.288 216.777 157.369 219.608 161.087 216.762C163.446 214.953 165.419 209.906 164.531 205.841C164.012 203.474 162.62 202.02 160.395 201.525C153.532 199.984 151.409 204.772 151.315 204.976C151.181 205.298 150.898 205.534 150.56 205.621C150.222 205.699 149.86 205.621 149.593 205.401C146.912 203.176 143.806 201.242 139.341 202.185C137.454 202.586 136.825 204.379 136.612 205.416C136.007 208.404 137.234 212.87 140.701 215.268C146 218.947 151.983 216.565 152.038 216.541C152.187 216.486 152.329 216.455 152.47 216.455Z" fill="#0F0F14"/>
<path d="M152.47 218.664C152.117 218.664 151.779 218.499 151.558 218.185C151.212 217.681 151.338 216.997 151.841 216.651C152.698 216.062 153.178 215.291 153.312 214.309C153.736 211.203 150.67 206.729 149.451 205.267C149.058 204.803 149.121 204.103 149.593 203.718C150.065 203.325 150.756 203.388 151.142 203.86C151.346 204.103 156.134 209.914 155.489 214.615C155.269 216.235 154.459 217.532 153.084 218.475C152.903 218.601 152.691 218.664 152.47 218.664Z" fill="#0F0F14"/>
<g opacity="0.4">
<path d="M147.297 205.424C149.027 206.784 149.695 208.475 149.239 208.947C148.783 209.41 147.384 208.475 145.654 207.115C143.924 205.755 142.525 204.489 142.973 204.025C143.421 203.561 145.56 204.064 147.297 205.424Z" fill="white"/>
</g>
<g opacity="0.4">
<path d="M160.301 202.995C161.968 203.64 162.848 204.937 162.589 205.511C162.322 206.085 161.009 205.715 159.35 205.071C157.691 204.426 156.307 203.758 156.567 203.184C156.826 202.618 158.642 202.35 160.301 202.995Z" fill="white"/>
</g>
<path d="M136.778 226.44C136.746 221.966 135.15 216.84 132.029 212.744C125.865 210.967 116.163 207.091 112.751 206.501C106.634 205.448 101.154 209.182 101.154 209.182L97.2939 213.522C91.5939 225.198 93.1742 235.23 104.071 243.713C112.452 250.239 128.86 249.735 128.86 249.735C128.86 249.735 128.923 249.649 129.026 249.492C128.915 249.46 128.86 249.444 128.86 249.444C128.86 249.444 136.825 238.304 136.778 226.44Z" fill="#3E4049"/>
<path d="M136.778 226.44C136.833 238.304 128.86 249.437 128.86 249.437C128.86 249.437 128.923 249.452 129.026 249.484C130.173 247.77 136.848 237.376 136.778 226.44Z" fill="#3E4049"/>
<path d="M162.55 220.221C158.587 217.218 140.355 214.835 140.355 214.835C140.355 214.835 136.872 214.151 132.469 213.302C135.606 217.422 136.762 221.982 136.778 226.44C136.848 237.376 130.181 247.77 129.026 249.476C129.867 249.696 133.782 250.671 137.422 250.828C141.526 251.001 154.46 249.956 162.29 242.007C170.113 234.058 166.504 223.224 162.55 220.221Z" fill="#F2C5A7"/>
<g opacity="0.5">
<path d="M99.9355 210.55C99.9355 210.55 108.442 206.462 117.751 210.204C125.142 213.184 154.829 219.906 159.594 221.416C164.358 222.933 166.481 224.616 166.481 224.616C166.481 224.616 163.572 220.103 160.034 218.955C156.496 217.807 128.507 211.305 128.507 211.305C128.507 211.305 115.023 206.659 112.751 206.486C104.944 205.896 99.9355 210.55 99.9355 210.55Z" fill="white"/>
</g>
<g opacity="0.25">
<path d="M96.1696 216.18C96.1696 216.18 93.5829 229.026 106.933 235.812C120.361 242.628 134.702 238.115 134.702 238.115L132.846 242.376C132.846 242.376 137.87 246.363 149.876 243.571C161.881 240.788 166.772 229.341 166.772 229.341C166.772 229.341 168.918 240.607 154.868 246.811C140.819 253.014 130.905 249.924 130.905 249.924L128.412 249.437C128.412 249.437 117.468 250.655 107.806 245.985C98.143 241.315 95.745 234.208 94.7544 229.781C93.7637 225.355 95.0689 219.167 95.0689 219.167L96.1696 216.18Z" fill="#0F0F14"/>
</g>
<path d="M138.429 251.952C138.051 251.952 137.697 251.945 137.367 251.929C133.609 251.772 129.647 250.781 128.742 250.545C126.761 250.671 111.414 251.386 102.687 244.012C92.4272 235.34 92.5294 228.869 93.921 219.246C93.9289 219.214 93.9289 219.183 93.9367 219.152C94.0154 218.806 95.9652 210.692 102.931 206.989C107.397 204.614 112.837 204.638 119.103 207.036C124.576 209.135 139.364 213.397 140.575 213.75C142.824 214.049 159.193 216.29 163.21 219.34C165.757 221.274 167.668 225.426 167.975 229.671C168.226 233.123 167.574 238.202 163.061 242.777C155.867 250.097 144.38 251.952 138.429 251.952ZM128.853 248.336C128.955 248.336 129.049 248.352 129.143 248.375C129.191 248.391 133.531 249.57 137.462 249.735C141.644 249.916 154.114 248.737 161.496 241.236C165.427 237.242 165.993 232.832 165.781 229.836C165.482 225.638 163.548 222.367 161.881 221.101C158.823 218.782 145.198 216.581 140.205 215.928C140.15 215.92 140.095 215.912 140.048 215.897C139.396 215.708 124.08 211.321 118.309 209.104C112.664 206.934 107.837 206.879 103.961 208.939C98.1037 212.052 96.2403 219.026 96.091 219.615C94.8251 228.429 94.55 234.255 104.11 242.329C112.562 249.468 128.609 248.344 128.766 248.336C128.798 248.336 128.821 248.336 128.853 248.336Z" fill="#0F0F14"/>
<path d="M128.853 250.537C128.632 250.537 128.412 250.474 128.216 250.333C127.72 249.979 127.602 249.295 127.956 248.8C128.106 248.588 142.792 227.533 131.172 213.255C130.787 212.783 130.857 212.091 131.329 211.706C131.801 211.321 132.493 211.392 132.878 211.863C138.153 218.342 139.262 227.029 136.094 236.999C133.735 244.405 129.906 249.845 129.741 250.073C129.537 250.372 129.198 250.537 128.853 250.537Z" fill="#0F0F14"/>
<path d="M166.811 228.924C165.459 229.184 164.154 229.215 162.793 229.121C161.425 228.956 159.995 228.995 158.917 227.926C158.862 227.871 158.886 227.776 158.949 227.745C160.278 227.163 161.433 227.375 162.762 227.171C163.839 227.053 165.427 226.849 166.473 226.739C167.865 226.636 168.163 228.626 166.811 228.924Z" fill="#0F0F14"/>
<path d="M166.457 235.749C165.404 235.78 164.397 235.639 163.383 235.395C162.503 235.143 161.457 234.962 160.828 234.215C160.749 234.082 160.443 233.752 160.663 233.634C161.284 233.445 161.732 233.398 162.212 233.437C163.635 233.508 165.105 233.429 166.52 233.547C167.88 233.697 167.817 235.678 166.457 235.749Z" fill="#0F0F14"/>
<path d="M163.737 241.417C162.377 241.449 161.095 241.087 159.884 240.497C159.483 240.309 159.106 240.01 158.894 239.436C158.87 239.373 158.902 239.302 158.965 239.271C159.932 238.807 160.561 239.098 161.48 239.082C162.157 239.121 163.179 239.137 163.823 239.216C165.168 239.404 165.081 241.346 163.737 241.417Z" fill="#0F0F14"/>
<path d="M159.452 245.443C158.532 245.372 157.707 245.136 156.865 244.782C156.244 244.491 155.552 244.216 155.096 243.65C154.931 243.414 154.813 243.155 154.806 242.856C154.806 242.785 154.861 242.73 154.931 242.722C155.953 242.549 156.472 242.809 157.392 242.895C158.084 242.99 159.098 243.1 159.759 243.249C161.087 243.579 160.796 245.513 159.452 245.443Z" fill="#0F0F14"/>
<path d="M146.102 215.708C146.102 215.708 150.977 221.211 155.812 224.183C160.647 227.155 161.418 227.415 161.339 229.16C161.26 230.906 141.345 244.366 139.16 251.261C139.16 251.261 135.299 252.605 134.694 250.577C134.694 250.577 140.905 241.74 147.454 236.582C154.004 231.424 157.054 229.152 157.054 229.152C157.054 229.152 147.148 224.199 142.014 215.055C142.022 215.071 144.813 214.332 146.102 215.708Z" fill="#FF2434"/>
<path d="M136.73 252.44C136.156 252.44 135.567 252.353 135.087 252.102C134.545 251.827 134.167 251.371 133.994 250.797C133.931 250.584 133.971 250.349 134.097 250.168C134.356 249.806 140.441 241.181 147.006 236.016C151.488 232.486 154.357 230.292 155.71 229.27C153.005 227.729 145.646 223.028 141.385 215.433C141.275 215.236 141.259 214.993 141.345 214.788C141.432 214.576 141.613 214.419 141.833 214.364C141.967 214.332 145.064 213.53 146.637 215.213C146.645 215.221 146.645 215.221 146.652 215.228C146.7 215.283 151.511 220.693 156.197 223.57C156.692 223.877 157.141 224.152 157.557 224.404C161.276 226.668 162.164 227.21 162.07 229.215C162.031 230.088 160.812 231.181 155.623 235.45C149.876 240.183 141.188 247.33 139.86 251.504C139.789 251.724 139.616 251.897 139.404 251.976C139.215 252.031 137.98 252.44 136.73 252.44ZM135.559 250.655C135.614 250.71 135.677 250.757 135.755 250.797C136.408 251.135 137.721 250.93 138.594 250.679C140.371 246.087 148.626 239.294 154.695 234.302C157.298 232.156 160.246 229.734 160.616 229.058C160.647 228.044 160.388 227.839 156.802 225.646C156.386 225.394 155.938 225.119 155.442 224.812C150.615 221.848 145.866 216.534 145.575 216.203C145.041 215.637 144.026 215.566 143.217 215.622C148.303 223.877 157.313 228.453 157.408 228.5C157.636 228.618 157.785 228.838 157.809 229.089C157.832 229.341 157.722 229.593 157.518 229.742C157.486 229.765 154.397 232.069 147.934 237.156C142.265 241.614 136.793 248.949 135.559 250.655Z" fill="#0F0F14"/>
<path d="M164.845 226.44C164.877 221.966 166.473 216.84 169.594 212.744C175.758 210.967 185.46 207.091 188.872 206.501C194.989 205.448 200.469 209.182 200.469 209.182L204.329 213.522C210.029 225.198 208.449 235.23 197.552 243.713C189.171 250.239 172.763 249.735 172.763 249.735C172.763 249.735 172.7 249.649 172.598 249.492C172.708 249.46 172.763 249.444 172.763 249.444C172.763 249.444 164.798 238.304 164.845 226.44Z" fill="#3E4049"/>
<path d="M164.845 226.44C164.79 238.304 172.763 249.437 172.763 249.437C172.763 249.437 172.7 249.452 172.597 249.484C171.45 247.77 164.775 237.376 164.845 226.44Z" fill="#3E4049"/>
<path d="M139.073 220.221C143.036 217.218 161.268 214.835 161.268 214.835C161.268 214.835 164.751 214.151 169.154 213.302C166.017 217.422 164.861 221.982 164.845 226.44C164.775 237.376 171.442 247.77 172.597 249.476C171.756 249.696 167.841 250.671 164.201 250.828C160.097 251.001 147.163 249.956 139.333 242.007C131.51 234.058 135.111 223.224 139.073 220.221Z" fill="#F2C5A7"/>
<g opacity="0.5">
<path d="M201.687 210.55C201.687 210.55 193.181 206.462 183.872 210.204C176.481 213.184 146.794 219.906 142.029 221.416C137.265 222.933 135.142 224.616 135.142 224.616C135.142 224.616 138.051 220.103 141.589 218.955C145.127 217.807 173.116 211.305 173.116 211.305C173.116 211.305 186.6 206.659 188.872 206.486C196.671 205.896 201.687 210.55 201.687 210.55Z" fill="white"/>
</g>
<g opacity="0.25">
<path d="M205.445 216.18C205.445 216.18 208.032 229.026 194.682 235.812C181.254 242.628 166.913 238.115 166.913 238.115L168.769 242.376C168.769 242.376 163.745 246.363 151.739 243.571C139.734 240.788 134.843 229.341 134.843 229.341C134.843 229.341 132.697 240.607 146.747 246.811C160.796 253.014 170.711 249.924 170.711 249.924L173.203 249.437C173.203 249.437 184.147 250.655 193.81 245.985C203.472 241.315 205.87 234.208 206.861 229.781C207.851 225.355 206.546 219.167 206.546 219.167L205.445 216.18Z" fill="#0F0F14"/>
</g>
<path d="M163.186 251.952C157.235 251.952 145.756 250.097 138.547 242.777C134.034 238.202 133.389 233.123 133.633 229.671C133.939 225.418 135.858 221.267 138.397 219.34C142.423 216.29 158.784 214.049 161.032 213.75C162.251 213.404 177.032 209.143 182.504 207.036C188.77 204.63 194.211 204.614 198.676 206.989C205.642 210.692 207.592 218.806 207.671 219.152C207.678 219.183 207.686 219.214 207.686 219.246C209.078 228.869 209.18 235.34 198.92 244.012C190.193 251.386 174.846 250.671 172.865 250.545C171.961 250.781 167.998 251.772 164.24 251.929C163.926 251.945 163.564 251.952 163.186 251.952ZM191.325 207.437C188.88 207.437 186.199 207.995 183.306 209.104C177.535 211.321 162.219 215.716 161.567 215.897C161.512 215.912 161.457 215.92 161.41 215.928C156.417 216.581 142.792 218.782 139.734 221.101C138.067 222.367 136.133 225.638 135.834 229.836C135.622 232.832 136.188 237.25 140.119 241.236C147.502 248.729 159.971 249.908 164.154 249.735C168.085 249.57 172.425 248.391 172.472 248.375C172.59 248.344 172.723 248.328 172.849 248.336C173.006 248.344 189.061 249.468 197.505 242.329C207.065 234.247 206.79 228.429 205.524 219.615C205.375 219.034 203.488 212.028 197.638 208.931C195.752 207.932 193.644 207.437 191.325 207.437Z" fill="#0F0F14"/>
<path d="M172.77 250.537C172.425 250.537 172.086 250.372 171.874 250.073C171.709 249.845 167.88 244.405 165.522 236.999C162.353 227.037 163.47 218.342 168.737 211.863C169.122 211.392 169.814 211.321 170.286 211.706C170.758 212.091 170.829 212.783 170.443 213.255C158.815 227.541 173.51 248.588 173.659 248.8C174.013 249.295 173.895 249.987 173.399 250.341C173.211 250.474 172.991 250.537 172.77 250.537Z" fill="#0F0F14"/>
<path d="M135.174 226.746C136.927 226.927 138.948 227.226 140.717 227.328C141.345 227.352 141.959 227.423 142.674 227.745C142.729 227.769 142.753 227.839 142.729 227.894C142.202 228.484 141.495 228.736 140.834 228.854C138.837 229.223 136.825 229.294 134.82 228.916C134.222 228.798 133.837 228.217 133.955 227.619C134.065 227.053 134.608 226.676 135.174 226.746Z" fill="#0F0F14"/>
<path d="M135.126 233.547C136.062 233.469 137.045 233.476 137.988 233.469C139.058 233.5 139.828 233.272 140.952 233.634C141.015 233.657 141.054 233.72 141.039 233.791C140.598 234.899 139.246 235.112 138.24 235.403C137.226 235.646 136.219 235.788 135.166 235.756C133.774 235.67 133.751 233.657 135.126 233.547Z" fill="#0F0F14"/>
<path d="M137.862 239.216C138.94 239.106 140.221 239.106 141.314 239.027C141.707 238.996 142.108 239.011 142.658 239.279C142.721 239.31 142.753 239.381 142.729 239.444C142.517 240.018 142.139 240.317 141.739 240.497C140.646 241.04 136.856 242.416 136.833 240.269C136.848 239.703 137.304 239.255 137.862 239.216Z" fill="#0F0F14"/>
<path d="M141.896 243.257C142.973 243.029 144.294 242.935 145.379 242.73C145.756 242.644 146.118 242.652 146.7 242.73C146.77 242.738 146.818 242.793 146.818 242.864C146.81 243.406 146.417 243.886 145.984 244.145C144.821 244.877 143.547 245.325 142.171 245.443C141.566 245.482 141.039 245.026 140.992 244.413C140.952 243.847 141.353 243.351 141.896 243.257Z" fill="#0F0F14"/>
<path d="M155.513 215.708C155.513 215.708 150.638 221.211 145.803 224.183C140.968 227.155 140.198 227.415 140.276 229.16C140.355 230.906 160.27 244.366 162.455 251.261C162.455 251.261 166.316 252.605 166.921 250.577C166.921 250.577 160.71 241.74 154.161 236.582C147.612 231.424 144.561 229.152 144.561 229.152C144.561 229.152 154.467 224.199 159.601 215.055C159.593 215.071 156.802 214.332 155.513 215.708Z" fill="#FF2434"/>
<path d="M164.885 252.44C163.635 252.44 162.4 252.031 162.212 251.96C161.992 251.882 161.826 251.709 161.756 251.489C160.435 247.314 151.747 240.167 145.992 235.434C140.795 231.157 139.584 230.072 139.545 229.199C139.459 227.195 140.339 226.66 144.058 224.388C144.467 224.136 144.923 223.861 145.418 223.554C150.104 220.677 154.916 215.268 154.963 215.213C154.971 215.205 154.971 215.205 154.978 215.197C156.551 213.514 159.656 214.316 159.782 214.348C160.002 214.403 160.183 214.56 160.27 214.772C160.356 214.985 160.348 215.221 160.23 215.417C155.969 223.012 148.61 227.706 145.906 229.254C147.258 230.284 150.128 232.478 154.609 236C161.174 241.166 167.259 249.783 167.519 250.152C167.644 250.333 167.684 250.569 167.621 250.781C167.448 251.355 167.07 251.811 166.528 252.086C166.048 252.353 165.467 252.44 164.885 252.44ZM163.029 250.679C163.902 250.93 165.215 251.127 165.868 250.797C165.946 250.757 166.009 250.71 166.064 250.655C164.83 248.957 159.358 241.622 153.705 237.172C147.234 232.085 144.144 229.773 144.121 229.758C143.916 229.608 143.806 229.357 143.83 229.105C143.854 228.854 144.003 228.626 144.231 228.515C144.325 228.468 153.335 223.885 158.422 215.629C157.612 215.566 156.598 215.645 156.063 216.211C155.773 216.541 151.016 221.856 146.196 224.82C145.701 225.127 145.245 225.402 144.836 225.654C141.243 227.839 140.984 228.052 141.023 229.066C141.393 229.742 144.341 232.171 146.943 234.31C152.997 239.294 161.252 246.087 163.029 250.679Z" fill="#0F0F14"/>
</g>
<defs>
<clipPath id="clip0_8_238">
<rect width="216.398" height="240" fill="white" transform="translate(52 17)"/>
</clipPath>
</defs>
</svg>
