<svg width="254" height="65" viewBox="0 0 254 65" fill="none" xmlns="http://www.w3.org/2000/svg">
<mask id="mask0_47_64" style="mask-type:alpha" maskUnits="userSpaceOnUse" x="0" y="0" width="254" height="65">
<rect width="254" height="64.6832" fill="#D9D9D9"/>
</mask>
<g mask="url(#mask0_47_64)">
<path d="M27.6083 3.05176e-05H24.453L60.7387 63.8944H64.2884L27.6083 3.05176e-05Z" fill="#FEFDDF"/>
<path d="M11.0433 3.05176e-05H7.88806L44.1738 63.8944H47.7235L11.0433 3.05176e-05Z" fill="#FEFDDF"/>
<path d="M-5.52197 3.05176e-05H-8.67725L27.6085 63.8944H31.1582L-5.52197 3.05176e-05Z" fill="#FEFDDF"/>
<path d="M-22.0872 0H-25.2424L11.0433 63.8944H14.593L-22.0872 0Z" fill="#FEFDDF"/>
<path d="M44.1735 3.05176e-05H41.0182L77.3039 63.8944H80.8536L44.1735 3.05176e-05Z" fill="#FEFDDF"/>
<path d="M60.7388 3.05176e-05H57.5835L93.8692 63.8944H97.4189L60.7388 3.05176e-05Z" fill="#FEFDDF"/>
<path d="M77.3041 3.05176e-05H74.1488L110.435 63.8944H113.984L77.3041 3.05176e-05Z" fill="#FEFDDF"/>
<path d="M93.8693 3.05176e-05H90.714L127 63.8944H130.549L93.8693 3.05176e-05Z" fill="#FEFDDF"/>
<path d="M110.435 3.05176e-05H107.279L143.565 63.8944H147.115L110.435 3.05176e-05Z" fill="#FEFDDF"/>
<path d="M127 3.05176e-05H123.845L160.13 63.8944H163.68L127 3.05176e-05Z" fill="#FEFDDF"/>
<path d="M143.565 3.05176e-05H140.409L176.695 63.8944H180.245L143.565 3.05176e-05Z" fill="#FEFDDF"/>
<path d="M160.13 3.05176e-05H156.975L193.26 63.8944H196.81L160.13 3.05176e-05Z" fill="#FEFDDF"/>
<path d="M176.695 3.05176e-05H173.54L209.826 63.8944H213.375L176.695 3.05176e-05Z" fill="#FEFDDF"/>
<path d="M193.261 3.05176e-05H190.105L226.391 63.8944H229.941L193.261 3.05176e-05Z" fill="#FEFDDF"/>
<path d="M209.826 3.05176e-05H206.671L242.956 63.8944H246.506L209.826 3.05176e-05Z" fill="#FEFDDF"/>
<path d="M226.391 3.05176e-05H223.236L259.522 63.8944H263.071L226.391 3.05176e-05Z" fill="#FEFDDF"/>
<path d="M242.956 3.05176e-05H239.801L276.086 63.8944H279.636L242.956 3.05176e-05Z" fill="#FEFDDF"/>
</g>
</svg>
